HIERARCHY
ROOT root
{
	OFFSET 0.000000 0.000000 0.000000
	CHANNELS 6 Xposition Yposition Zposition Zrotation Yrotation Xrotation
	JOINT lhip
	{
		OFFSET 0.058581 -0.082280 -0.017664
		CHANNELS 3 Zrotation Yrotation Xrotation
		JOINT lknee
		{
			OFFSET 0.043451 -0.386469 0.008037
			CHANNELS 3 Zrotation Yrotation Xrotation
			JOINT lankle
			{
				OFFSET -0.014790 -0.426874 -0.037428
				CHANNELS 3 Zrotation Yrotation Xrotation
				JOINT ltoe
				{
					OFFSET 0.041054 -0.060286 0.122042
					CHANNELS 3 Zrotation Yrotation Xrotation
					End Site
					{
						OFFSET 0.000000 0.000000 0.000000
					}
				}
			}
		}
	}
	JOINT rhip
	{
		OFFSET -0.060310 -0.090513 -0.013543
		CHANNELS 3 Zrotation Yrotation Xrotation
		JOINT rknee
		{
			OFFSET -0.043257 -0.383688 -0.004843
			CHANNELS 3 Zrotation Yrotation Xrotation
			JOINT rankle
			{
				OFFSET 0.019056 -0.420046 -0.034562
				CHANNELS 3 Zrotation Yrotation Xrotation
				JOINT rtoe
				{
					OFFSET -0.034840 -0.062106 0.130323
					CHANNELS 3 Zrotation Yrotation Xrotation
					End Site
					{
						OFFSET 0.000000 0.000000 0.000000
					}
				}
			}
		}
	}
	JOINT lowerback
	{
		OFFSET 0.004439 0.124404 -0.038385
		CHANNELS 3 Zrotation Yrotation Xrotation
		JOINT upperback
		{
			OFFSET 0.004488 0.137956 0.026820
			CHANNELS 3 Zrotation Yrotation Xrotation
			JOINT chest
			{
				OFFSET -0.002265 0.056032 0.002855
				CHANNELS 3 Zrotation Yrotation Xrotation
				JOINT lowerneck
				{
					OFFSET -0.013390 0.211636 -0.033468
					CHANNELS 3 Zrotation Yrotation Xrotation
					JOINT upperneck
					{
						OFFSET 0.010113 0.088937 0.050410
						CHANNELS 3 Zrotation Yrotation Xrotation
						End Site
						{
							OFFSET 0.000000 0.000000 0.000000
						}
					}
				}
				JOINT lclavicle
				{
					OFFSET 0.071702 0.114000 -0.018898
					CHANNELS 3 Zrotation Yrotation Xrotation
					JOINT lshoulder
					{
						OFFSET 0.122921 0.045205 -0.019046
						CHANNELS 3 Zrotation Yrotation Xrotation
						JOINT lelbow
						{
							OFFSET 0.255332 -0.015649 -0.022946
							CHANNELS 3 Zrotation Yrotation Xrotation
							JOINT lwrist
							{
								OFFSET 0.265709 0.012698 -0.007375
								CHANNELS 3 Zrotation Yrotation Xrotation
								End Site
								{
									OFFSET 0.000000 0.000000 0.000000
								}
							}
						}
					}
				}
				JOINT rclavicle
				{
					OFFSET -0.082954 0.112472 -0.023707
					CHANNELS 3 Zrotation Yrotation Xrotation
					JOINT rshoulder
					{
						OFFSET -0.113228 0.046853 -0.008472
						CHANNELS 3 Zrotation Yrotation Xrotation
						JOINT relbow
						{
							OFFSET -0.260127 -0.014369 -0.031269
							CHANNELS 3 Zrotation Yrotation Xrotation
							JOINT rwrist
							{
								OFFSET -0.269108 0.006794 -0.006027
								CHANNELS 3 Zrotation Yrotation Xrotation
								End Site
								{
									OFFSET 0.000000 0.000000 0.000000
								}
							}
						}
					}
				}
			}
		}
	}
}
MOTION
Frames: 14
Frame Time: 0.033333
0.291528 1.009257 0.543530 4.716739 -0.517193 78.997994 21.157552 14.634899 -56.940503 -18.125601 18.480388 126.571285 1.124709 -5.762445 -36.097007 0.000000 -0.000000 0.000000 -18.679006 -11.212095 -57.955941 7.886791 -10.641831 129.259253 0.983827 7.028359 -38.480015 0.000000 -0.000000 0.000000 -1.869650 -0.141976 47.388882 4.261778 -1.376547 -4.948925 -0.132161 -2.832975 0.952982 1.465295 13.896039 -19.464429 -3.697317 2.648858 4.046622 -28.675446 -4.709815 -3.158723 -33.530627 2.617232 -3.605216 8.663643 -41.294318 5.928515 2.027803 -9.500579 6.371919 27.827116 5.350669 -0.476798 32.571130 1.483359 -3.010838 -19.340481 39.009440 -8.192431 -0.228748 7.942860 10.794253 
0.294321 1.008891 0.517097 4.715342 -1.463346 78.343739 21.348555 14.888461 -58.715366 -17.393110 19.980287 130.431820 1.961179 -5.923353 -36.512951 0.000000 -0.000000 0.000000 -19.709062 -11.946737 -60.747513 8.400771 -10.320270 133.621614 1.034014 6.461823 -38.584527 0.000000 -0.000000 0.000000 -2.237919 -0.302137 48.376461 4.352030 -1.110338 -5.590071 -0.136933 -3.057014 1.124026 0.976642 13.928126 -20.060200 -3.883178 3.314127 4.437405 -28.777440 -4.640605 -3.143523 -33.723574 2.837271 -3.399281 8.322356 -41.703997 5.695167 3.599097 -9.173770 5.585585 27.899239 5.344396 -0.376570 32.905929 1.520416 -2.348253 -19.752282 38.811209 -9.152087 -0.414325 7.769975 11.245510 
0.296754 1.008000 0.492412 4.373284 -1.745270 77.260689 22.282106 15.861701 -60.130084 -17.115007 21.227987 134.090017 1.717215 -6.683970 -35.741992 0.000000 -0.000000 0.000000 -20.908197 -12.068434 -62.567731 8.580987 -10.623949 137.469696 0.778545 6.810354 -38.787927 0.000000 -0.000000 0.000000 -1.808428 -0.673296 49.573848 4.290772 -0.656984 -5.869194 -0.425584 -3.031456 1.167367 0.887581 14.331986 -20.680459 -4.526223 3.516182 4.939690 -28.960687 -4.842998 -3.182787 -33.708321 2.823974 -3.798939 8.105313 -41.299187 5.598283 1.940906 -9.420809 5.403155 28.044791 5.136477 -0.565019 33.194981 1.579737 -2.590796 -19.502578 38.708740 -8.632386 1.154683 6.699781 11.881830 
0.297209 1.005853 0.470100 4.230848 -1.340317 75.602660 23.677623 16.930526 -60.929507 -17.346129 21.682834 137.540417 0.838901 -8.034929 -35.385060 0.000000 -0.000000 0.000000 -21.930130 -12.452622 -63.227483 8.889603 -11.400335 140.823804 1.274019 7.768299 -38.527039 0.000000 -0.000000 0.000000 -1.504997 -0.797687 51.256954 4.668040 -0.484795 -5.938038 -0.187776 -2.888606 0.860360 0.818075 14.904467 -20.728601 -4.693918 3.690981 4.879096 -28.983993 -4.936881 -3.414250 -33.950977 3.170424 -3.855140 7.570884 -41.135608 5.582158 3.659573 -9.738002 5.059503 28.334803 5.522945 -0.221334 32.654717 1.155187 -2.723838 -18.597772 38.614729 -8.238810 -1.234566 7.870121 12.698809 
0.299231 1.003377 0.447794 4.481754 -1.544749 74.516755 24.433191 17.277404 -61.815287 -16.854813 22.827166 140.660289 0.983163 -7.998683 -35.729343 0.000000 -0.000000 0.000000 -23.522617 -13.071850 -64.322790 9.126601 -11.577314 144.184534 1.058208 8.857483 -38.941351 0.000000 -0.000000 0.000000 -1.613135 -0.917538 51.802914 4.935289 -0.505233 -6.058975 -0.121458 -2.824252 1.024802 0.287468 15.058531 -20.137159 -4.222718 3.678438 3.702679 -28.813814 -5.193863 -3.166905 -34.291936 3.609217 -4.006965 7.765961 -41.612525 5.846551 2.604059 -9.381145 4.369567 28.269088 5.532391 -0.121763 32.904075 0.946283 -3.201655 -18.006002 38.748203 -7.158809 1.531346 6.088305 12.832960 
0.299033 1.001538 0.427341 3.959092 -0.715695 73.724778 26.099831 18.682390 -62.870990 -16.839726 23.923227 143.625397 1.837092 -7.218571 -36.203275 0.000000 -0.000000 0.000000 -23.884475 -14.466680 -66.669141 9.737224 -13.830810 147.196326 1.004450 8.201495 -37.584621 0.000000 -0.000000 0.000000 -0.951140 -0.805430 52.281345 5.233804 0.213308 -7.027108 0.012929 -3.139134 1.481745 0.759405 14.571754 -20.887611 -4.753365 4.610948 5.277608 -29.277807 -5.033421 -2.907076 -33.883944 3.558049 -4.480640 6.840426 -41.452380 6.638703 4.817051 -9.255455 4.811844 28.542338 5.349629 0.269034 32.550804 0.976888 -3.749072 -17.326713 38.538762 -7.160980 1.743566 6.182894 13.162922 
0.300894 0.999242 0.408498 4.314047 -1.213470 72.284039 27.000072 18.507371 -62.546083 -16.153720 24.910536 146.137665 0.904151 -8.321984 -36.649746 0.000000 -0.000000 0.000000 -25.119456 -13.750063 -66.984772 9.829914 -13.032936 150.151767 1.320023 9.836623 -38.535538 0.000000 -0.000000 0.000000 -1.511912 -1.030071 52.302753 5.422395 -0.073865 -5.585913 -0.276932 -3.094805 0.843082 0.941018 16.069558 -20.897966 -5.302968 4.134620 5.157840 -29.130479 -5.145588 -3.232413 -33.224115 3.923231 -4.402987 6.935699 -41.073237 5.688167 3.023630 -8.761434 5.659297 29.031144 5.501845 -0.040133 32.534751 1.191791 -2.824113 -17.416971 37.229083 -7.731970 1.977999 6.776698 13.337335 
0.301333 0.996749 0.394322 4.187937 -0.833253 70.283551 28.434302 19.194424 -61.670085 -17.012001 25.274685 147.832938 0.560591 -9.041337 -36.924702 0.000000 -0.000000 0.000000 -26.750253 -13.855041 -66.458511 10.849813 -13.390396 151.748945 2.147161 12.721069 -37.475252 0.000000 -0.000000 0.000000 -1.424369 -1.122600 53.583640 5.478626 -0.019602 -5.638805 -0.322278 -2.795825 0.747881 0.438608 16.690040 -20.624163 -5.007172 3.613911 4.906125 -28.779008 -5.475392 -3.469256 -33.224350 4.231206 -4.359525 6.481787 -40.012696 5.968675 4.410906 -9.456088 5.009901 29.225511 5.928579 0.091337 32.535796 0.669508 -3.225750 -16.750482 36.659891 -7.002165 1.376980 6.807253 13.359326 
0.300615 0.994943 0.388055 3.902866 0.423321 68.832032 30.145376 19.896476 -60.892492 -18.204668 25.204655 148.787644 0.403854 -9.759714 -36.737043 0.000000 -0.000000 0.000000 -27.423737 -14.143011 -65.335567 11.939061 -14.997776 152.014651 2.630505 14.951651 -36.337153 0.000000 -0.000000 0.000000 -0.611332 -1.667570 54.221521 5.813764 -0.126826 -5.494736 -0.544387 -2.435554 0.402414 0.450941 17.337898 -21.021996 -5.656729 3.840386 6.141030 -29.035427 -5.984378 -3.677371 -32.662720 4.519399 -4.551510 5.742619 -38.104444 5.287361 5.871890 -9.024873 5.488413 29.722627 6.415581 0.268885 31.980492 0.858074 -3.802194 -15.407738 35.397141 -7.022825 0.380241 6.928147 14.434715 
0.301900 0.992755 0.386655 4.090330 -0.470799 68.110612 30.296947 19.913097 -59.598226 -18.227519 25.415520 148.762658 -0.133101 -11.049874 -36.280683 0.000000 -0.000000 0.000000 -28.213150 -13.510407 -64.752775 12.470147 -14.267155 152.349213 2.883168 15.745092 -36.166285 0.000000 -0.000000 0.000000 -1.618320 -1.246479 53.303427 5.898804 -0.368366 -4.850303 -0.541561 -2.659006 0.225358 0.581113 18.001068 -21.108869 -6.169202 3.830948 7.027683 -28.592299 -6.243266 -3.678049 -33.000970 4.061747 -4.686315 6.032230 -35.484616 5.102187 4.751962 -9.568897 6.436480 29.642368 6.452409 0.256919 32.659402 1.169454 -3.169350 -15.308518 34.191781 -6.818289 2.294871 6.352199 15.055467 
0.302965 0.991841 0.394089 4.235804 -0.890108 67.556855 30.048746 19.319475 -57.950832 -18.152130 25.059846 147.771030 -0.438159 -11.151080 -35.695124 0.000000 -0.000000 0.000000 -27.977294 -13.087274 -63.257256 12.732903 -13.184432 151.565410 3.360611 16.079105 -35.922941 0.000000 -0.000000 0.000000 -1.792596 -0.952364 52.465050 5.797900 -0.608644 -4.323027 -0.481969 -2.765061 0.281844 0.150635 18.159636 -21.297952 -6.378514 3.432755 6.830984 -28.720084 -6.869975 -3.725634 -33.166560 3.560346 -4.650514 6.327386 -33.550100 4.371530 4.864155 -9.126653 6.896094 29.700550 6.659288 -0.206012 33.272137 0.910069 -2.572636 -15.621722 33.513945 -6.839371 2.544333 6.501024 14.731131 
0.301970 0.992017 0.409943 4.213902 -0.911749 67.036636 28.783230 18.968788 -56.280915 -18.706222 23.950227 145.826124 -1.630478 -10.584679 -34.904063 0.000000 -0.000000 0.000000 -26.942019 -12.718132 -61.296070 13.371127 -12.026731 149.864144 5.816471 18.053835 -34.302993 0.000000 -0.000000 0.000000 -1.853428 -0.877853 52.525208 5.448462 -0.775314 -4.502235 -0.308344 -2.547676 0.144871 -0.232661 18.465482 -21.316053 -6.295331 2.924655 6.466823 -28.469930 -7.387718 -3.832803 -33.474392 3.640917 -4.764041 6.329554 -32.789385 3.729201 4.642954 -9.132347 7.261545 29.362111 7.001297 0.022564 34.446147 0.453991 -2.330902 -15.484116 33.743590 -6.703980 -0.634090 5.409872 13.804695 
0.301027 0.993811 0.429415 4.220682 -0.908896 67.936307 27.415873 17.841986 -55.290260 -18.736557 22.796159 143.224888 -2.068809 -10.329366 -34.530679 0.000000 -0.000000 0.000000 -25.697781 -11.413766 -59.510422 12.571614 -11.349498 147.112073 4.866880 16.502476 -35.285964 0.000000 -0.000000 0.000000 -1.635281 -0.564230 51.020969 5.362663 -0.723228 -4.941623 -0.349562 -2.804912 0.460497 -0.014003 18.055520 -21.534869 -6.583059 2.873018 6.460145 -28.373976 -7.133824 -3.439621 -33.896456 2.775513 -4.884466 6.514864 -32.425474 4.342783 3.828420 -10.082759 7.608095 29.584733 6.514589 -0.467739 34.524245 0.915725 -2.530524 -15.076135 32.784770 -5.245637 1.257049 7.593903 14.552569 
0.299450 0.994898 0.455060 4.022228 -0.327699 68.349877 26.232211 17.242112 -53.440573 -19.544324 20.832923 140.082877 -2.471310 -10.662446 -34.363465 0.000000 -0.000000 0.000000 -23.560173 -10.957533 -56.872021 11.726198 -10.718859 143.613874 4.121486 14.661543 -34.617843 0.000000 -0.000000 0.000000 -1.209159 -0.719820 49.856297 5.135322 -0.799428 -4.508080 -0.251463 -2.580641 0.079302 -0.017272 16.967944 -20.787183 -6.171134 3.807486 5.448087 -28.452757 -7.142877 -3.264085 -34.316893 3.283220 -4.869114 7.067504 -33.888669 4.641959 2.497984 -9.548523 7.553872 29.424536 6.653347 -0.387939 34.952639 0.034702 -2.630445 -15.249262 34.539769 -4.724133 4.434618 6.619368 14.639166 
